<?xml version="1.0" standalone="no"?>
<!DOCTYPE svg PUBLIC "-//W3C//DTD SVG 20010904//EN"
 "http://www.w3.org/TR/2001/REC-SVG-20010904/DTD/svg10.dtd">
<svg version="1.0" xmlns="http://www.w3.org/2000/svg"
 width="512.000000pt" height="512.000000pt" viewBox="0 0 512.000000 512.000000"
 preserveAspectRatio="xMidYMid meet">
<metadata>
Created by potrace 1.14, written by Peter Selinger 2001-2017
</metadata>
<g transform="translate(0.000000,512.000000) scale(0.100000,-0.100000)"
fill="#000000" stroke="none">
<path d="M2280 5109 c-298 -33 -574 -115 -855 -254 -267 -131 -465 -273 -676
-484 -211 -211 -352 -408 -485 -676 -180 -366 -264 -723 -264 -1130 0 -304 37
-535 131 -820 311 -942 1164 -1627 2161 -1735 140 -15 423 -12 572 5 634 74
1241 401 1653 890 319 378 531 866 588 1351 19 165 19 443 0 608 -57 485 -269
973 -588 1351 -412 489 -1019 816 -1653 890 -139 16 -456 18 -584 4z m1472
-1487 c74 -36 133 -96 170 -170 l23 -47 3 -677 3 -678 -86 0 -85 0 0 645 c0
520 -3 652 -14 678 -16 39 -76 94 -114 104 -15 5 -513 8 -1107 8 -1001 0
-1082 -1 -1111 -17 -43 -23 -81 -71 -94 -116 -6 -24 -10 -265 -10 -669 l0
-633 -85 0 -86 0 3 673 3 672 33 67 c46 95 131 164 229 187 22 5 521 9 1148 8
l1110 -2 67 -33z m-113 -247 c16 -8 31 -22 35 -30 3 -9 6 -304 6 -656 l0 -639
-1125 0 -1125 0 0 641 0 641 29 29 29 29 1062 0 c912 0 1065 -2 1089 -15z
m449 -1427 c19 -19 16 -242 -4 -307 -21 -71 -89 -144 -153 -166 -42 -14 -194
-15 -1392 -13 l-1344 3 -42 22 c-54 29 -100 86 -118 147 -19 63 -21 296 -3
314 17 17 3039 17 3056 0z"/>
<path d="M1825 3020 c-54 -17 -137 -74 -166 -115 -66 -93 -79 -289 -26 -396
59 -121 134 -176 254 -186 157 -13 281 72 324 220 10 35 2 56 -25 67 -31 11
-53 -5 -76 -58 -40 -90 -100 -132 -187 -132 -75 0 -124 18 -164 60 -126 132
-73 405 88 449 125 35 219 -8 266 -121 13 -31 21 -38 44 -38 56 0 66 34 32
103 -28 55 -74 104 -124 130 -45 23 -187 33 -240 17z"/>
<path d="M2347 3015 c-15 -15 -17 -49 -17 -335 l0 -320 24 -15 c28 -19 54 -10
67 22 5 13 9 71 9 129 l0 104 90 0 c106 0 96 7 201 -151 72 -109 97 -131 125
-108 37 31 35 43 -31 149 -35 57 -73 114 -84 126 l-21 24 28 14 c41 21 82 103
82 164 0 76 -42 149 -104 181 -44 23 -63 26 -201 29 -132 4 -153 2 -168 -13z
m318 -99 c42 -18 55 -42 55 -104 0 -84 -49 -112 -196 -112 l-94 0 0 115 0 115
100 0 c64 0 113 -5 135 -14z"/>
<path d="M2962 3008 c-9 -9 -12 -97 -12 -335 0 -308 1 -323 19 -333 26 -13 33
-13 57 4 17 13 19 31 24 209 l5 195 75 -159 c41 -88 80 -165 87 -171 7 -6 24
-8 37 -4 20 5 36 33 92 163 l69 156 5 -187 c5 -171 7 -189 24 -202 25 -18 41
-18 60 2 14 13 16 58 16 333 0 335 -1 341 -46 341 -31 0 -40 -14 -140 -240
-48 -110 -91 -200 -94 -200 -3 0 -45 85 -94 189 -48 104 -97 203 -107 220 -20
33 -55 41 -77 19z"/>
<path d="M2242 1843 l3 -38 309 -3 c219 -2 313 1 322 9 8 6 14 24 14 40 l0 29
-326 0 -325 0 3 -37z"/>
</g>
</svg>
